<svg xmlns="http://www.w3.org/2000/svg" width="12" height="12" viewBox="0 0 12 12" fill="none">
<path d="M6.00099 4.5C5.17229 4.5 4.50098 5.17155 4.50098 6C4.50098 6.82865 5.17254 7.5 6.00099 7.5C6.82964 7.5 7.50099 6.82845 7.50099 6C7.50099 5.17135 6.82944 4.5 6.00099 4.5ZM6.00099 3.5C7.38119 3.5 8.50099 4.61855 8.50099 6C8.50099 7.38025 7.38244 8.5 6.00099 8.5C4.62074 8.5 3.50098 7.38145 3.50098 6C3.50098 4.61977 4.61953 3.5 6.00099 3.5ZM9.25099 3.37458C9.25099 3.71963 8.97059 3.99959 8.62599 3.99959C8.28094 3.99959 8.00099 3.7192 8.00099 3.37458C8.00099 3.02995 8.28134 2.75 8.62599 2.75C8.97014 2.74957 9.25099 3.02995 9.25099 3.37458ZM6.00099 2C4.76374 2 4.56208 2.00328 3.98662 2.0289C3.59456 2.0473 3.33175 2.10004 3.08757 2.19484C2.87057 2.279 2.71403 2.37949 2.54725 2.54628C2.37982 2.7137 2.27951 2.86982 2.19569 3.08692C2.10067 3.33166 2.04795 3.59406 2.02988 3.98558C2.004 4.5376 2.00098 4.73053 2.00098 6C2.00098 7.23725 2.00425 7.4389 2.02987 8.0143C2.04829 8.4062 2.10109 8.6694 2.19566 8.913C2.28004 9.1303 2.38074 9.2872 2.54672 9.4532C2.7148 9.62105 2.87138 9.7217 3.08642 9.8047C3.33358 9.90025 3.59623 9.95305 3.98655 9.9711C4.53858 9.99695 4.7315 10 6.00099 10C7.23824 10 7.43989 9.9967 8.01529 9.9711C8.40634 9.95275 8.66974 9.8998 8.91399 9.8053C9.13069 9.72115 9.28809 9.6201 9.45419 9.45425C9.62229 9.2859 9.72274 9.1297 9.80584 8.91415C9.90114 8.6679 9.95404 8.4049 9.97209 8.01445C9.99794 7.4624 10.001 7.26945 10.001 6C10.001 4.76276 9.99769 4.56111 9.97209 3.98569C9.95369 3.59453 9.90074 3.33075 9.80614 3.08659C9.72219 2.87019 9.62134 2.71318 9.45469 2.54628C9.28699 2.37858 9.13129 2.27847 8.91404 2.19471C8.66949 2.09977 8.40669 2.04698 8.01539 2.02891C7.46339 2.00303 7.27044 2 6.00099 2ZM6.00099 1C7.35929 1 7.52889 1.005 8.06224 1.03C8.59429 1.05458 8.95724 1.13875 9.27599 1.2625C9.60554 1.38959 9.88389 1.56125 10.1618 1.83917C10.4393 2.11709 10.611 2.39625 10.7385 2.725C10.8618 3.04334 10.946 3.40667 10.971 3.93875C10.9947 4.47209 11.001 4.64167 11.001 6C11.001 7.35835 10.996 7.5279 10.971 8.06125C10.9464 8.59335 10.8618 8.95625 10.7385 9.275C10.6114 9.6046 10.4393 9.8829 10.1618 10.1609C9.88389 10.4384 9.60429 10.61 9.27599 10.7375C8.95724 10.8609 8.59429 10.945 8.06224 10.97C7.52889 10.9938 7.35929 11 6.00099 11C4.64264 11 4.47306 10.995 3.93973 10.97C3.40764 10.9454 3.04514 10.8609 2.72598 10.7375C2.39681 10.6104 2.11806 10.4384 1.84014 10.1609C1.56223 9.8829 1.39098 9.60335 1.26348 9.275C1.13973 8.95625 1.05598 8.59335 1.03098 8.06125C1.00723 7.5279 1.00098 7.35835 1.00098 6C1.00098 4.64167 1.00598 4.47209 1.03098 3.93875C1.05556 3.40625 1.13973 3.04375 1.26348 2.725C1.39056 2.39584 1.56223 2.11709 1.84014 1.83917C2.11806 1.56125 2.39723 1.39 2.72598 1.2625C3.04473 1.13875 3.40723 1.055 3.93973 1.03C4.47306 1.00625 4.64264 1 6.00099 1Z" fill="white"/>
</svg>
