<svg xmlns="http://www.w3.org/2000/svg" width="12" height="12" viewBox="0 0 12 12" fill="none">
<path d="M3.47073 2.49996C3.47054 2.90712 3.22353 3.27351 2.84616 3.42636C2.46879 3.57922 2.03642 3.48803 1.75294 3.19578C1.46945 2.90352 1.39146 2.46857 1.55574 2.09603C1.72002 1.72349 2.09376 1.48775 2.50073 1.49996C3.04126 1.51619 3.47097 1.95918 3.47073 2.49996ZM3.50073 4.23996H1.50073V10.5H3.50073V4.23996ZM6.66074 4.23996H4.67073V10.5H6.64074V7.21495C6.64074 5.38495 9.02574 5.21495 9.02574 7.21495V10.5H11.0007V6.53495C11.0007 3.44996 7.47074 3.56497 6.64074 5.07995L6.66074 4.23996Z" fill="white"/>
</svg>
